# xmcd
#
# Track frame offsets:
#	150
#	16063
#	36602
#	50821
#	66207
#	93886
#	111039
#	126186
#	149956
#	167907
#	191223
#
# Disc length: 2830 seconds
#
# Revision: 0
# Processed by: cddbd v1.5.2PL0 Copyright (c) Steve Scherf et al.
# Submitted via: EZCDAudioConverter 5.1.1.1
#
DISCID=a90b0c0b
DTITLE=Aaron Keylock - Cut Against The Grain
DYEAR=2017
DGENRE=Blues Rock
TTITLE0=All The Right Moves
TTITLE1=Down
TTITLE2=Medicine Man
TTITLE3=Falling Again
TTITLE4=Just One Question
TTITLE5=Against The Grain
TTITLE6=That's Not Me
TTITLE7=Try
TTITLE8=Spin The Bottle
TTITLE9=Sun's Gonna Shine
TTITLE10=No Matter What The Cost
EXTD=
EXTT0=
EXTT1=
EXTT2=
EXTT3=
EXTT4=
EXTT5=
EXTT6=
EXTT7=
EXTT8=
EXTT9=
EXTT10=
PLAYORDER=
